<svg width="38.000000" height="40.000000" viewBox="0 0 38 40" fill="none" xmlns="http://www.w3.org/2000/svg" xmlns:xlink="http://www.w3.org/1999/xlink">
	<desc>
			Created with Pixso.
	</desc>
	<defs>
		<clipPath id="clip7_65">
			<rect rx="-0.500000" width="37.000000" height="39.000000" transform="translate(0.500000 0.500000)" fill="white" fill-opacity="0"/>
		</clipPath>
	</defs>
	<rect rx="-0.500000" width="37.000000" height="39.000000" transform="translate(0.500000 0.500000)" fill="#FFFFFF" fill-opacity="0"/>
	<g clip-path="url(#clip7_65)">
		<path d="M19 1.25C9.16 1.25 1.18 9.64 1.18 20C1.18 30.35 9.16 38.75 19 38.75C28.83 38.75 36.81 30.35 36.81 20C36.81 9.64 28.83 1.25 19 1.25ZM2.82 22.3L7.9 23.63C7.88 23.88 7.86 24.14 7.86 24.41C7.86 26.47 8.35 28.5 9.29 30.31L6.73 31.32C4.61 28.79 3.25 25.65 2.82 22.3ZM19 37.18C14.93 37.18 11.2 35.61 8.34 33L10.47 32.15C12.51 34.79 15.57 36.47 19 36.47C22.42 36.47 25.48 34.79 27.53 32.15L29.65 33C26.79 35.6 23.06 37.18 19 37.18ZM9.35 24.41C9.35 20.79 11.56 20.07 15.14 20.07C15.8 20.07 16.46 20.09 17.12 20.11C18.37 20.16 19.62 20.16 20.87 20.11C21.53 20.09 22.19 20.07 22.85 20.07C26.43 20.07 28.64 20.79 28.64 24.41C28.64 30.2 24.32 34.91 19 34.91C13.67 34.91 9.35 30.2 9.35 24.41ZM31.26 31.32L28.7 30.31C29.64 28.5 30.13 26.47 30.13 24.41C30.13 24.14 30.11 23.88 30.09 23.63L35.17 22.3C34.74 25.65 33.38 28.79 31.26 31.32ZM29.56 21.52C28.18 18.52 24.59 18.51 22.85 18.51C22.18 18.51 21.49 18.53 20.82 18.55C19.61 18.6 18.39 18.6 17.17 18.55C16.49 18.53 15.82 18.51 15.14 18.51C13.4 18.51 9.81 18.52 8.43 21.52L2.67 20.02L2.67 20C2.67 16.3 3.78 12.88 5.67 10.07C5.89 10.39 6.25 10.67 6.41 10.52C7.35 9.68 8.47 9.07 9.67 8.73C10.87 8.39 12.12 8.34 13.35 8.57C13.69 8.64 14 7.3 13.58 7.22C11.25 6.78 8.86 7.25 6.83 8.54C9.83 5.03 14.17 2.81 19 2.81C23.91 2.81 28.32 5.11 31.31 8.73C29.26 7.37 26.8 6.86 24.41 7.31C24 7.4 24.3 8.73 24.64 8.66C27.12 8.19 29.66 8.91 31.58 10.62C31.75 10.77 32.14 10.45 32.35 10.12C34.29 13.01 35.33 16.46 35.32 20L35.32 20.02L29.56 21.52Z" fill="#DC1E1E" fill-opacity="1.000000" fill-rule="nonzero"/>
		<path d="M22.01 12.53C21.56 12.69 21.22 12.71 21.28 12.99C22.47 18.47 27.33 19.84 30.97 15.72C31.16 15.52 30.87 15.32 30.55 14.94C27.62 16.26 23.75 14.97 22.01 12.53Z" fill="#DC1E1E" fill-opacity="1.000000" fill-rule="nonzero"/>
		<path d="M15.98 12.53C14.07 15.21 10.1 16.13 7.44 14.94C7.12 15.32 6.84 15.52 7.02 15.72C10.66 19.84 15.52 18.47 16.72 12.99C16.77 12.71 16.43 12.69 15.98 12.53Z" fill="#DC1E1E" fill-opacity="1.000000" fill-rule="nonzero"/>
	</g>
</svg>
