<svg width="38.000000" height="40.000000" viewBox="0 0 38 40" fill="none" xmlns="http://www.w3.org/2000/svg" xmlns:xlink="http://www.w3.org/1999/xlink">
	<desc>
			Created with Pixso.
	</desc>
	<defs>
		<clipPath id="clip7_69">
			<rect rx="-0.500000" width="37.000000" height="39.000000" transform="translate(0.500000 0.500000)" fill="white" fill-opacity="0"/>
		</clipPath>
	</defs>
	<rect rx="-0.500000" width="37.000000" height="39.000000" transform="translate(0.500000 0.500000)" fill="#FFFFFF" fill-opacity="0"/>
	<g clip-path="url(#clip7_69)">
		<path d="M19 1.25C9.16 1.25 1.18 9.64 1.18 20C1.18 30.35 9.16 38.75 19 38.75C28.83 38.75 36.81 30.35 36.81 20C36.81 9.64 28.83 1.25 19 1.25ZM29.91 31.49C28.48 32.99 26.79 34.18 24.93 34.99C23.06 35.8 21.07 36.21 19.05 36.21C10.56 36.21 3.67 28.96 3.67 20.02C3.67 11.08 10.55 3.83 19.05 3.83C27.55 3.83 34.43 11.08 34.43 20.02C34.43 22.22 34.01 24.4 33.18 26.42L33.22 26.32C32.44 28.25 31.32 30 29.91 31.48L29.91 31.49Z" fill="#15CE3D" fill-opacity="1.000000" fill-rule="nonzero"/>
		<path d="M11.28 15.62L14.25 15.62L14.25 18.75L11.28 18.75L11.28 15.62Z" fill="#15CE3D" fill-opacity="1.000000" fill-rule="nonzero"/>
		<path d="M23.75 15.62L26.71 15.62L26.71 18.75L23.75 18.75L23.75 15.62Z" fill="#15CE3D" fill-opacity="1.000000" fill-rule="nonzero"/>
		<path d="M25.1 24C24.64 25.21 23.85 26.25 22.82 26.99C21.79 27.72 20.58 28.12 19.33 28.12L18.66 28.12C17.42 28.12 16.21 27.73 15.19 27C14.16 26.28 13.37 25.24 12.9 24.04L12.89 24L12.79 23.75L10.23 23.75L10.68 24.92C11.99 28.29 15.07 30.62 18.68 30.62L19.31 30.62C21.03 30.62 22.7 30.08 24.12 29.08C25.54 28.08 26.64 26.65 27.29 24.98L27.31 24.92L27.76 23.75L25.2 23.75L25.1 24Z" fill="#15CE3D" fill-opacity="1.000000" fill-rule="nonzero"/>
	</g>
</svg>
