<svg width="38.000000" height="38.579926" viewBox="0 0 38 38.5799" fill="none" xmlns="http://www.w3.org/2000/svg" xmlns:xlink="http://www.w3.org/1999/xlink">
	<desc>
			Created with Pixso.
	</desc>
	<defs/>
	<path d="M0 19.29C0 23.1 1.11 26.83 3.2 30C5.28 33.17 8.25 35.65 11.72 37.11C15.2 38.57 19.02 38.95 22.7 38.2C26.39 37.46 29.77 35.62 32.43 32.93C35.09 30.23 36.9 26.79 37.63 23.05C38.36 19.31 37.99 15.43 36.55 11.9C35.11 8.38 32.68 5.37 29.55 3.25C26.43 1.13 22.75 0 19 0C13.96 0 9.12 2.03 5.56 5.64C2 9.26 0 14.17 0 19.29ZM31.41 29.96L8.48 6.68C11.6 4.04 15.58 2.68 19.64 2.87C23.7 3.06 27.54 4.78 30.41 7.69C33.28 10.61 34.98 14.51 35.16 18.63C35.35 22.75 34.01 26.79 31.41 29.96ZM8.46 31.91C5.18 29.07 3.13 25.03 2.78 20.67C2.42 16.31 3.78 11.98 6.56 8.63L29.49 31.91C26.55 34.43 22.82 35.81 18.97 35.81C15.13 35.81 11.4 34.43 8.46 31.91Z" fill="#000000" fill-opacity="1.000000" fill-rule="nonzero"/>
</svg>
