<svg width="24.000000" height="24.000000" viewBox="0 0 24 24" fill="none" xmlns="http://www.w3.org/2000/svg" xmlns:xlink="http://www.w3.org/1999/xlink">
	<desc>
			Created with Pixso.
	</desc>
	<defs>
		<clipPath id="clip3_5">
			<rect rx="-0.500000" width="23.000000" height="23.000000" transform="translate(0.500000 0.500000)" fill="white" fill-opacity="0"/>
		</clipPath>
	</defs>
	<rect rx="-0.500000" width="23.000000" height="23.000000" transform="translate(0.500000 0.500000)" fill="#FFFFFF" fill-opacity="0"/>
	<g clip-path="url(#clip3_5)">
		<path d="M9.5 3C11.22 3 12.87 3.68 14.09 4.9C15.31 6.12 16 7.77 16 9.5C16 11.11 15.41 12.59 14.44 13.73L14.71 14L15.5 14L20.5 19L19 20.5L14 15.5L14 14.71L13.73 14.44C12.55 15.44 11.05 15.99 9.5 16C7.77 16 6.12 15.31 4.9 14.09C3.68 12.87 3 11.22 3 9.5C3 7.77 3.68 6.12 4.9 4.9C6.12 3.68 7.77 3 9.5 3ZM9.5 5C7 5 5 7 5 9.5C5 12 7 14 9.5 14C12 14 14 12 14 9.5C14 7 12 5 9.5 5Z" fill="#535353" fill-opacity="1.000000" fill-rule="nonzero"/>
	</g>
</svg>
