<svg width="298.312897" height="20.241211" viewBox="0 0 298.313 20.2412" fill="none" xmlns="http://www.w3.org/2000/svg" xmlns:xlink="http://www.w3.org/1999/xlink">
	<desc>
			Created with Pixso.
	</desc>
	<defs/>
	<path d="M263.51 19.89Q263.66 19.96 263.83 19.96L278.2 19.96Q278.39 19.96 278.54 19.88Q278.63 19.83 278.72 19.75Q278.85 19.62 278.9 19.47Q278.93 19.37 278.93 19.26L278.93 16.43Q278.93 16.24 278.85 16.1Q278.8 16 278.72 15.93Q278.64 15.86 278.55 15.81Q278.4 15.73 278.2 15.73L271.01 15.73L273.58 13.13Q275.09 11.98 276.2 10.9Q277.31 9.82 277.91 8.63Q278.13 8.2 278.26 7.75Q278.51 6.95 278.51 6.07Q278.51 4.48 277.85 3.25Q277.75 3.07 277.64 2.89Q277.54 2.74 277.43 2.59Q276.58 1.44 275.11 0.77Q273.44 0 271.06 0Q269.32 0 267.94 0.51Q266.56 1.03 265.56 1.92Q264.94 2.48 264.49 3.16Q264.22 3.56 264.02 4.01Q263.84 4.4 263.72 4.81Q263.46 5.64 263.44 6.54Q263.44 6.7 263.51 6.82Q263.55 6.9 263.61 6.97Q263.67 7.03 263.75 7.07Q263.88 7.13 264.03 7.13L267.53 7.13Q267.72 7.13 267.9 7.08Q268.01 7.05 268.11 7Q268.15 6.97 268.18 6.95Q268.39 6.8 268.48 6.49Q268.6 5.9 268.89 5.34Q269.04 5.05 269.25 4.82Q269.46 4.6 269.71 4.43Q270.25 4.08 271.06 4.08Q272.2 4.08 272.7 4.65Q272.73 4.68 272.76 4.71Q272.81 4.78 272.86 4.86Q273.25 5.45 273.25 6.29Q273.25 7.1 272.54 8.03Q271.85 8.95 270.4 10.14Q268.96 11.33 266.72 13.04L263.81 15.9Q263.34 16.26 263.22 16.67Q263.11 17.07 263.11 17.27L263.11 19.26Q263.11 19.37 263.14 19.48Q263.19 19.63 263.32 19.75Q263.41 19.84 263.51 19.89ZM107.05 19.35Q108.97 20.24 111.63 20.24Q114.29 20.24 116.29 19.33Q117.78 18.65 118.77 17.53Q119.11 17.14 119.39 16.71L119.39 16.7Q120.48 14.99 120.48 12.59L120.48 9.4Q120.48 9.21 120.41 9.06Q120.36 8.96 120.28 8.88Q120.2 8.8 120.1 8.74Q119.96 8.67 119.77 8.67L112.72 8.67Q112.54 8.67 112.39 8.74Q112.3 8.8 112.21 8.88Q112.15 8.96 112.1 9.05Q112.02 9.2 112.02 9.4L112.02 11.47Q112.02 11.67 112.1 11.83Q112.15 11.92 112.21 11.99Q112.29 12.07 112.38 12.12Q112.53 12.2 112.72 12.2L115.35 12.2L115.35 12.73Q115.35 13.93 114.87 14.71Q114.63 15.1 114.3 15.38Q113.98 15.66 113.57 15.84Q112.75 16.2 111.72 16.2Q110.3 16.2 109.4 15.53Q109.28 15.44 109.17 15.33Q108.22 14.47 108.13 12.5Q108.04 10.04 108.13 7.64Q108.22 5.79 109.14 4.95Q109.23 4.87 109.33 4.79Q110.22 4.11 111.63 4.11Q112.69 4.11 113.35 4.45Q114.01 4.78 114.39 5.25Q114.76 5.7 114.96 6.13Q115.07 6.32 115.22 6.42Q115.38 6.52 115.69 6.52L119.77 6.52Q119.91 6.52 120.03 6.47Q120.13 6.43 120.21 6.35Q120.3 6.27 120.35 6.16Q120.4 6.06 120.4 5.93Q120.36 4.92 119.77 3.88Q119.19 2.85 118.08 1.98Q116.98 1.11 115.35 0.6Q113.73 0.08 111.63 0.08Q109.03 0.08 107.09 0.95Q105.69 1.58 104.74 2.62Q104.38 3.02 104.09 3.47Q103.03 5.12 102.92 7.49Q102.9 8.73 102.9 10.09Q102.9 11.45 102.92 12.65Q103.03 15.08 104.08 16.78Q104.43 17.35 104.89 17.83Q105.78 18.77 107.05 19.35ZM0.35 19.88Q0.5 19.96 0.69 19.96L4.06 19.96Q4.25 19.96 4.4 19.87Q4.49 19.82 4.55 19.75Q4.67 19.63 4.72 19.49Q4.75 19.38 4.75 19.26L4.75 9.07L11.58 19.42Q11.64 19.5 11.85 19.73L11.85 19.73Q12.06 19.96 12.51 19.96L15.51 19.96Q15.7 19.96 15.85 19.87Q15.94 19.82 16 19.75Q16.08 19.67 16.13 19.57Q16.2 19.42 16.2 19.23L16.2 1.05Q16.2 0.85 16.11 0.69Q16.07 0.62 16 0.56Q15.94 0.49 15.87 0.45Q15.71 0.36 15.51 0.36L12.14 0.36Q11.94 0.36 11.79 0.44Q11.7 0.49 11.64 0.56Q11.58 0.61 11.54 0.68Q11.45 0.84 11.45 1.05L11.45 11.64L4.62 0.89Q4.55 0.77 4.34 0.57Q4.14 0.36 3.66 0.36L0.69 0.36Q0.49 0.36 0.34 0.44Q0.25 0.49 0.19 0.56Q0.13 0.61 0.09 0.68Q0 0.84 0 1.05L0 19.26Q0 19.39 0.04 19.5Q0.08 19.64 0.19 19.75Q0.26 19.83 0.35 19.88ZM18.88 19.94Q18.94 19.96 19.01 19.96L22.45 19.96Q22.92 19.96 23.12 19.75Q23.32 19.54 23.37 19.37L24.44 16.51L31.91 16.51L33.01 19.37Q33.06 19.54 33.27 19.75Q33.48 19.96 33.9 19.96L37.35 19.96Q37.48 19.96 37.59 19.91Q37.69 19.87 37.78 19.78Q37.91 19.64 37.95 19.48Q37.96 19.43 37.96 19.37Q37.96 19.26 37.93 19.16Q37.92 19.14 37.91 19.12L31.35 1.14Q31.34 1.07 31.31 1.02Q31.22 0.78 31 0.6Q31 0.59 31 0.59Q30.73 0.36 30.26 0.36L26.12 0.36Q25.66 0.36 25.39 0.58Q25.38 0.59 25.38 0.6Q25.16 0.78 25.07 1.02Q25.04 1.07 25.03 1.14L18.45 19.12Q18.42 19.23 18.42 19.37Q18.42 19.43 18.43 19.49Q18.47 19.65 18.6 19.78Q18.73 19.91 18.88 19.94ZM40.65 19.92Q40.76 19.96 40.87 19.96L44.24 19.96Q44.43 19.96 44.58 19.87Q44.67 19.82 44.73 19.75Q44.85 19.63 44.9 19.49Q44.93 19.38 44.93 19.26L44.93 8.76L48.1 14.61Q48.12 14.65 48.14 14.69Q48.27 14.89 48.46 15.06Q48.69 15.25 49.08 15.25L50.53 15.25Q50.93 15.25 51.15 15.06Q51.32 14.91 51.45 14.71Q51.49 14.66 51.52 14.61L54.65 8.76L54.65 19.26Q54.65 19.37 54.68 19.47Q54.73 19.62 54.86 19.75Q54.95 19.84 55.06 19.89Q55.2 19.96 55.38 19.96L58.71 19.96Q58.88 19.96 59.03 19.89Q59.14 19.84 59.23 19.75Q59.36 19.62 59.41 19.47Q59.44 19.37 59.44 19.26L59.44 1.05Q59.44 0.87 59.36 0.72Q59.31 0.63 59.23 0.56Q59.14 0.48 59.05 0.43Q58.89 0.36 58.71 0.36L55.71 0.36Q55.24 0.36 55.03 0.59L55.02 0.6Q54.82 0.83 54.74 0.97L49.81 9.79L44.88 0.97Q44.82 0.83 44.6 0.6L44.6 0.6Q44.37 0.36 43.89 0.36L40.87 0.36Q40.75 0.36 40.64 0.39Q40.5 0.44 40.38 0.56Q40.31 0.62 40.26 0.71Q40.18 0.86 40.18 1.05L40.18 19.26Q40.18 19.37 40.21 19.48Q40.26 19.63 40.38 19.75Q40.51 19.87 40.65 19.92ZM62.12 19.94Q62.18 19.96 62.24 19.96L65.68 19.96Q66.15 19.96 66.35 19.75Q66.55 19.54 66.61 19.37L67.67 16.51L75.14 16.51L76.24 19.37Q76.29 19.54 76.5 19.75Q76.72 19.96 77.13 19.96L80.58 19.96Q80.71 19.96 80.82 19.91Q80.92 19.87 81.01 19.78Q81.15 19.64 81.18 19.48Q81.19 19.43 81.19 19.37Q81.19 19.26 81.16 19.16Q81.15 19.14 81.14 19.12L74.58 1.14Q74.57 1.07 74.54 1.02Q74.45 0.78 74.24 0.6L74.23 0.59Q73.96 0.36 73.49 0.36L69.35 0.36Q68.89 0.36 68.62 0.58Q68.62 0.59 68.61 0.6Q68.4 0.78 68.3 1.02Q68.28 1.07 68.26 1.14L61.68 19.12Q61.65 19.23 61.65 19.37Q61.65 19.43 61.66 19.49Q61.7 19.65 61.83 19.78Q61.96 19.91 62.12 19.94ZM83.76 19.88Q83.91 19.96 84.1 19.96L87.47 19.96Q87.67 19.96 87.82 19.87Q87.9 19.82 87.97 19.75Q88.08 19.63 88.13 19.49Q88.16 19.38 88.16 19.26L88.16 9.07L94.99 19.42Q95.06 19.5 95.26 19.73L95.26 19.73Q95.47 19.96 95.92 19.96L98.92 19.96Q99.12 19.96 99.27 19.87Q99.35 19.82 99.42 19.75Q99.49 19.67 99.54 19.57Q99.62 19.42 99.62 19.23L99.62 1.05Q99.62 0.85 99.52 0.69Q99.48 0.62 99.42 0.56Q99.35 0.49 99.28 0.45Q99.13 0.36 98.92 0.36L95.55 0.36Q95.35 0.36 95.2 0.44Q95.12 0.49 95.05 0.56Q94.99 0.61 94.95 0.68Q94.86 0.84 94.86 1.05L94.86 11.64L88.03 0.89Q87.97 0.77 87.75 0.57Q87.55 0.36 87.07 0.36L84.1 0.36Q83.9 0.36 83.75 0.44Q83.67 0.49 83.6 0.56Q83.54 0.61 83.5 0.68Q83.41 0.84 83.41 1.05L83.41 19.26Q83.41 19.39 83.45 19.5Q83.5 19.64 83.6 19.75Q83.67 19.83 83.76 19.88ZM122.04 19.94Q122.1 19.96 122.16 19.96L125.6 19.96Q126.08 19.96 126.27 19.75Q126.47 19.54 126.53 19.37L127.59 16.51L135.06 16.51L136.16 19.37Q136.21 19.54 136.42 19.75Q136.64 19.96 137.05 19.96L140.5 19.96Q140.63 19.96 140.74 19.91Q140.84 19.87 140.93 19.78Q141.07 19.64 141.1 19.48Q141.11 19.43 141.11 19.37Q141.11 19.26 141.08 19.16Q141.07 19.14 141.06 19.12L134.5 1.14Q134.49 1.07 134.46 1.02Q134.37 0.78 134.16 0.6L134.15 0.59Q133.89 0.36 133.41 0.36L129.27 0.36Q128.81 0.36 128.54 0.58Q128.54 0.59 128.53 0.6Q128.32 0.78 128.22 1.02Q128.2 1.07 128.18 1.14L121.6 19.12Q121.57 19.23 121.57 19.37Q121.57 19.43 121.58 19.49Q121.62 19.65 121.75 19.78Q121.88 19.91 122.04 19.94ZM143.68 19.88Q143.83 19.96 144.02 19.96L147.39 19.96Q147.59 19.96 147.74 19.87Q147.82 19.82 147.89 19.75Q148 19.63 148.05 19.49Q148.09 19.38 148.09 19.26L148.09 9.07L154.91 19.42Q154.98 19.5 155.18 19.73L155.18 19.73Q155.39 19.96 155.84 19.96L158.84 19.96Q159.04 19.96 159.19 19.87Q159.27 19.82 159.34 19.75Q159.42 19.67 159.46 19.57Q159.53 19.42 159.53 19.23L159.53 1.05Q159.53 0.85 159.44 0.69Q159.4 0.62 159.34 0.56Q159.28 0.49 159.2 0.45Q159.05 0.36 158.84 0.36L155.47 0.36Q155.27 0.36 155.12 0.44Q155.04 0.49 154.97 0.56Q154.91 0.61 154.87 0.68Q154.78 0.84 154.78 1.05L154.78 11.64L147.95 0.89Q147.89 0.77 147.67 0.57Q147.47 0.36 146.99 0.36L144.02 0.36Q143.82 0.36 143.67 0.44Q143.59 0.49 143.52 0.56Q143.46 0.61 143.42 0.68Q143.33 0.84 143.33 1.05L143.33 19.26Q143.33 19.39 143.37 19.5Q143.42 19.64 143.52 19.75Q143.59 19.83 143.68 19.88ZM163.82 19.88Q163.97 19.96 164.16 19.96L177.04 19.96Q177.23 19.96 177.38 19.88Q177.47 19.83 177.54 19.75Q177.65 19.63 177.7 19.49Q177.74 19.38 177.74 19.26L177.74 16.46Q177.74 16.26 177.66 16.11Q177.61 16.02 177.54 15.94Q177.46 15.86 177.36 15.81Q177.22 15.73 177.04 15.73L168.55 15.73L168.55 1.05Q168.55 0.85 168.46 0.69Q168.42 0.62 168.35 0.56Q168.29 0.49 168.22 0.45Q168.06 0.36 167.86 0.36L164.16 0.36Q163.95 0.36 163.8 0.44Q163.72 0.49 163.65 0.56Q163.6 0.61 163.56 0.68Q163.46 0.84 163.46 1.05L163.46 19.26Q163.46 19.39 163.5 19.5Q163.55 19.64 163.65 19.75Q163.73 19.83 163.82 19.88ZM180.53 19.88Q180.68 19.96 180.87 19.96L184.63 19.96Q184.81 19.96 184.96 19.88Q185.06 19.83 185.14 19.75Q185.27 19.62 185.32 19.47Q185.35 19.37 185.35 19.26L185.35 1.05Q185.35 0.87 185.27 0.72Q185.22 0.63 185.14 0.56Q185.06 0.48 184.97 0.44Q184.82 0.36 184.63 0.36L180.87 0.36Q180.67 0.36 180.52 0.44Q180.44 0.49 180.37 0.56Q180.31 0.61 180.27 0.68Q180.18 0.84 180.18 1.05L180.18 19.26Q180.18 19.39 180.22 19.5Q180.26 19.64 180.37 19.75Q180.44 19.83 180.53 19.88ZM189.6 19.88Q189.75 19.96 189.94 19.96L193.47 19.96Q193.66 19.96 193.81 19.88Q193.9 19.83 193.98 19.75Q194.09 19.63 194.14 19.49Q194.18 19.38 194.18 19.26L194.18 12.48L199.72 19.4Q199.8 19.5 200.07 19.73Q200.34 19.96 200.83 19.96L205.01 19.96Q205.16 19.96 205.27 19.9Q205.36 19.85 205.43 19.78Q205.55 19.65 205.58 19.5Q205.6 19.44 205.6 19.37Q205.6 19.15 205.49 19.04Q205.49 19.04 205.48 19.03L198.26 9.74L204.98 1.28Q205.07 1.14 205.07 0.95Q205.07 0.87 205.05 0.8Q205.01 0.66 204.89 0.54Q204.82 0.46 204.72 0.41Q204.61 0.36 204.48 0.36L200.44 0.36Q200 0.36 199.73 0.54Q199.47 0.72 199.35 0.89L194.18 7.28L194.18 1.05Q194.18 0.85 194.09 0.69Q194.04 0.62 193.98 0.56Q193.91 0.49 193.83 0.44Q193.67 0.36 193.47 0.36L189.94 0.36Q189.74 0.36 189.59 0.44Q189.51 0.49 189.44 0.56Q189.38 0.61 189.34 0.68Q189.25 0.84 189.25 1.05L189.25 19.26Q189.25 19.39 189.29 19.5Q189.34 19.64 189.44 19.75Q189.51 19.83 189.6 19.88ZM208.17 19.88Q208.32 19.96 208.51 19.96L221.39 19.96Q221.58 19.96 221.73 19.88Q221.82 19.83 221.89 19.75Q222.01 19.63 222.05 19.49Q222.09 19.38 222.09 19.26L222.09 16.46Q222.09 16.26 222.01 16.11Q221.97 16.02 221.89 15.94Q221.81 15.86 221.71 15.81Q221.57 15.73 221.39 15.73L212.9 15.73L212.9 1.05Q212.9 0.85 212.81 0.69Q212.77 0.62 212.71 0.56Q212.64 0.49 212.57 0.45Q212.42 0.36 212.21 0.36L208.51 0.36Q208.31 0.36 208.15 0.44Q208.07 0.49 208 0.56Q207.95 0.61 207.91 0.68Q207.81 0.84 207.81 1.05L207.81 19.26Q207.81 19.39 207.85 19.5Q207.9 19.64 208 19.75Q208.08 19.83 208.17 19.88ZM223.28 19.94Q223.34 19.96 223.41 19.96L226.85 19.96Q227.32 19.96 227.52 19.75Q227.72 19.54 227.77 19.37L228.84 16.51L236.31 16.51L237.41 19.37Q237.46 19.54 237.67 19.75Q237.88 19.96 238.3 19.96L241.75 19.96Q241.88 19.96 241.99 19.91Q242.09 19.87 242.18 19.78Q242.31 19.64 242.35 19.48Q242.36 19.43 242.36 19.37Q242.36 19.26 242.33 19.16Q242.32 19.14 242.31 19.12L235.75 1.14Q235.74 1.07 235.71 1.02Q235.62 0.78 235.4 0.6L235.4 0.59Q235.13 0.36 234.66 0.36L230.52 0.36Q230.06 0.36 229.79 0.58Q229.78 0.59 229.78 0.6Q229.56 0.78 229.47 1.02Q229.45 1.07 229.43 1.14L222.85 19.12Q222.82 19.23 222.82 19.37Q222.82 19.43 222.83 19.49Q222.87 19.65 223 19.78Q223.13 19.91 223.28 19.94ZM244.93 19.88Q245.08 19.96 245.27 19.96L248.89 19.96Q249.07 19.96 249.22 19.88Q249.32 19.83 249.4 19.75Q249.53 19.62 249.58 19.47Q249.61 19.37 249.61 19.26L249.61 13.04L252.47 13.04L255.66 19.2Q255.77 19.42 256.03 19.69L256.03 19.69Q256.28 19.96 256.81 19.96L260.53 19.96Q260.6 19.96 260.67 19.94Q260.81 19.9 260.93 19.78Q261.07 19.64 261.11 19.48Q261.12 19.43 261.12 19.37Q261.12 19.23 261.04 19.06L257.2 12.17Q258.14 11.75 258.86 11.09Q259.34 10.65 259.72 10.11Q259.77 10.03 259.82 9.95Q260.67 8.62 260.67 6.74Q260.67 4.65 259.71 3.22Q259.26 2.55 258.6 2.03Q256.53 0.36 252.89 0.36L245.27 0.36Q245.07 0.36 244.92 0.44Q244.84 0.49 244.77 0.56Q244.71 0.61 244.67 0.68Q244.58 0.84 244.58 1.05L244.58 19.26Q244.58 19.39 244.62 19.5Q244.66 19.64 244.77 19.75Q244.84 19.83 244.93 19.88ZM290.72 19.92Q290.82 19.96 290.94 19.96L294.41 19.96Q294.53 19.96 294.63 19.92Q294.78 19.87 294.9 19.75Q295.03 19.62 295.08 19.47Q295.12 19.37 295.12 19.26L295.12 16.09L297.6 16.09Q297.73 16.09 297.84 16.06Q297.98 16.01 298.1 15.9Q298.18 15.81 298.23 15.72Q298.31 15.57 298.31 15.39L298.31 12.62Q298.31 12.5 298.27 12.39Q298.22 12.25 298.11 12.13Q298.05 12.07 297.99 12.03Q297.82 11.92 297.58 11.92L295.12 11.92L295.12 1.05Q295.12 0.87 295.04 0.72Q294.99 0.63 294.9 0.56Q294.78 0.44 294.64 0.39Q294.53 0.36 294.41 0.36L290.32 0.36Q289.89 0.36 289.58 0.56Q289.42 0.66 289.29 0.83L281.14 11.86Q281.03 12.06 280.93 12.27Q280.84 12.48 280.84 12.73L280.84 15.39Q280.84 15.58 280.92 15.73Q280.96 15.82 281.04 15.9Q281.16 16.01 281.3 16.06Q281.41 16.09 281.53 16.09L290.24 16.09L290.24 19.26Q290.24 19.37 290.28 19.48Q290.33 19.63 290.45 19.75Q290.57 19.87 290.72 19.92ZM252.83 9.07L249.61 9.07L249.61 4.25L252.83 4.25Q254.21 4.25 254.84 4.92Q254.96 5.06 255.07 5.21Q255.47 5.82 255.47 6.68Q255.47 7.53 255.07 8.11Q254.96 8.28 254.81 8.42Q254.15 9.07 252.83 9.07ZM28.19 5.09L30.79 12.48L25.58 12.48L28.19 5.09ZM71.42 5.09L74.02 12.48L68.81 12.48L71.42 5.09ZM131.34 5.09L133.94 12.48L128.73 12.48L131.34 5.09ZM232.59 5.09L235.19 12.48L229.98 12.48L232.59 5.09ZM290.35 12.12L285.65 12.12L290.35 5.5L290.35 12.12Z" fill="#295091" fill-opacity="1.000000" fill-rule="evenodd"/>
</svg>
